<svg width="48" height="48" viewBox="0 0 48 48" fill="none" xmlns="http://www.w3.org/2000/svg">
<g clip-path="url(#clip0_104_211)">
<path d="M18.0379 18C18.0128 17.67 18 17.3365 18 17C18 9.8203 23.8202 4 31 4C38.1798 4 44 9.8203 44 17C44 24.1798 38.1798 30 31 30C30.6636 30 30.33 29.9872 30 29.9622" stroke="white" stroke-width="3" stroke-linecap="round" stroke-linejoin="round"/>
<path d="M17 44C9.8203 44 4 38.1798 4 31C4 23.8202 9.8203 18 17 18C24.1798 18 30 23.8202 30 31C30 38.1798 24.1798 44 17 44Z" stroke="white" stroke-width="3" stroke-linecap="round" stroke-linejoin="round"/>
<path d="M4 14C4 10.6863 6.6863 8 10 8H14M14 8L10 12M14 8L10 4" stroke="white" stroke-width="3" stroke-linecap="round" stroke-linejoin="round"/>
<mask id="path-4-outside-1_104_211" maskUnits="userSpaceOnUse" x="35.75" y="32" width="14" height="14" fill="black">
<rect fill="white" x="35.75" y="32" width="14" height="14"/>
<path fill-rule="evenodd" clip-rule="evenodd" d="M37.1893 41.9246C36.6036 42.5104 36.6036 43.4602 37.1893 44.0459C37.7751 44.6317 38.7249 44.6317 39.3107 44.0459L42.4926 40.864L45.6746 44.046C46.2604 44.6318 47.2102 44.6318 47.796 44.046C48.3817 43.4602 48.3817 42.5105 47.796 41.9247L44.6139 38.7427L47.7959 35.5607C48.3817 34.9749 48.3817 34.0251 47.7959 33.4393C47.2102 32.8536 46.2604 32.8536 45.6746 33.4393L42.4926 36.6213L39.3107 33.4394C38.7249 32.8536 37.7751 32.8536 37.1894 33.4394C36.6036 34.0252 36.6036 34.9749 37.1894 35.5607L40.3713 38.7427L37.1893 41.9246Z"/>
</mask>
<path fill-rule="evenodd" clip-rule="evenodd" d="M37.1893 41.9246C36.6036 42.5104 36.6036 43.4602 37.1893 44.0459C37.7751 44.6317 38.7249 44.6317 39.3107 44.0459L42.4926 40.864L45.6746 44.046C46.2604 44.6318 47.2102 44.6318 47.796 44.046C48.3817 43.4602 48.3817 42.5105 47.796 41.9247L44.6139 38.7427L47.7959 35.5607C48.3817 34.9749 48.3817 34.0251 47.7959 33.4393C47.2102 32.8536 46.2604 32.8536 45.6746 33.4393L42.4926 36.6213L39.3107 33.4394C38.7249 32.8536 37.7751 32.8536 37.1894 33.4394C36.6036 34.0252 36.6036 34.9749 37.1894 35.5607L40.3713 38.7427L37.1893 41.9246Z" fill="white"/>
<path d="M37.1893 44.0459L36.659 44.5763L36.659 44.5763L37.1893 44.0459ZM37.1893 41.9246L36.659 41.3943H36.659L37.1893 41.9246ZM39.3107 44.0459L39.841 44.5763L39.841 44.5763L39.3107 44.0459ZM42.4926 40.864L43.023 40.3336L42.4926 39.8033L41.9623 40.3336L42.4926 40.864ZM45.6746 44.046L46.205 43.5157L45.6746 44.046ZM47.796 41.9247L48.3263 41.3943L47.796 41.9247ZM44.6139 38.7427L44.0836 38.2123L43.5533 38.7427L44.0836 39.273L44.6139 38.7427ZM47.7959 35.5607L48.3263 36.091V36.091L47.7959 35.5607ZM47.7959 33.4393L48.3263 32.909V32.909L47.7959 33.4393ZM45.6746 33.4393L46.205 33.9697V33.9697L45.6746 33.4393ZM42.4926 36.6213L41.9623 37.1517L42.4926 37.682L43.023 37.1517L42.4926 36.6213ZM39.3107 33.4394L39.841 32.9091L39.3107 33.4394ZM37.1894 33.4394L37.7197 33.9697L37.1894 33.4394ZM37.1894 35.5607L36.659 36.091H36.659L37.1894 35.5607ZM40.3713 38.7427L40.9016 39.273L41.432 38.7427L40.9016 38.2123L40.3713 38.7427ZM37.7197 43.5156C37.4268 43.2227 37.4268 42.7478 37.7197 42.455L36.659 41.3943C35.7803 42.273 35.7803 43.6976 36.659 44.5763L37.7197 43.5156ZM38.7803 43.5156C38.4874 43.8085 38.0126 43.8085 37.7197 43.5156L36.659 44.5763C37.5377 45.455 38.9623 45.455 39.841 44.5763L38.7803 43.5156ZM41.9623 40.3336L38.7803 43.5156L39.841 44.5763L43.023 41.3943L41.9623 40.3336ZM46.205 43.5157L43.023 40.3336L41.9623 41.3943L45.1443 44.5763L46.205 43.5157ZM47.2656 43.5157C46.9727 43.8086 46.4979 43.8086 46.205 43.5157L45.1443 44.5763C46.023 45.455 47.4476 45.455 48.3263 44.5763L47.2656 43.5157ZM47.2656 42.455C47.5585 42.7479 47.5585 43.2228 47.2656 43.5157L48.3263 44.5763C49.205 43.6976 49.205 42.273 48.3263 41.3943L47.2656 42.455ZM44.0836 39.273L47.2656 42.455L48.3263 41.3943L45.1443 38.2123L44.0836 39.273ZM47.2656 35.0303L44.0836 38.2123L45.1443 39.273L48.3263 36.091L47.2656 35.0303ZM47.2656 33.9697C47.5585 34.2626 47.5585 34.7374 47.2656 35.0303L48.3263 36.091C49.205 35.2123 49.205 33.7877 48.3263 32.909L47.2656 33.9697ZM46.205 33.9697C46.4978 33.6768 46.9727 33.6768 47.2656 33.9697L48.3263 32.909C47.4476 32.0303 46.023 32.0303 45.1443 32.909L46.205 33.9697ZM43.023 37.1517L46.205 33.9697L45.1443 32.909L41.9623 36.091L43.023 37.1517ZM38.7803 33.9697L41.9623 37.1517L43.023 36.091L39.841 32.9091L38.7803 33.9697ZM37.7197 33.9697C38.0126 33.6768 38.4874 33.6768 38.7803 33.9697L39.841 32.9091C38.9623 32.0304 37.5377 32.0304 36.659 32.9091L37.7197 33.9697ZM37.7197 35.0304C37.4268 34.7375 37.4268 34.2626 37.7197 33.9697L36.659 32.9091C35.7803 33.7877 35.7803 35.2124 36.659 36.091L37.7197 35.0304ZM40.9016 38.2123L37.7197 35.0304L36.659 36.091L39.841 39.273L40.9016 38.2123ZM37.7197 42.455L40.9016 39.273L39.841 38.2123L36.659 41.3943L37.7197 42.455Z" fill="white" mask="url(#path-4-outside-1_104_211)"/>
</g>
<defs>
<clipPath id="clip0_104_211">
<rect width="48" height="48" fill="white"/>
</clipPath>
</defs>
</svg>
