<svg width="48" height="48" viewBox="0 0 48 48" fill="none" xmlns="http://www.w3.org/2000/svg">
<path d="M6 19L24 8L42 19" stroke="white" stroke-width="3" stroke-linecap="round" stroke-linejoin="round"/>
<path d="M10.25 39.75H29" stroke="white" stroke-width="3" stroke-linecap="round" stroke-linejoin="round"/>
<path d="M20 18H28" stroke="white" stroke-width="3" stroke-linecap="round" stroke-linejoin="round"/>
<path d="M12 34V24" stroke="white" stroke-width="3" stroke-linecap="round" stroke-linejoin="round"/>
<path d="M20 34V24" stroke="white" stroke-width="3" stroke-linecap="round" stroke-linejoin="round"/>
<path d="M28 34V24" stroke="white" stroke-width="3" stroke-linecap="round" stroke-linejoin="round"/>
<path d="M35.75 33L35.75 24" stroke="white" stroke-width="3" stroke-linecap="round" stroke-linejoin="round"/>
<mask id="path-8-outside-1_104_194" maskUnits="userSpaceOnUse" x="29.5" y="33.125" width="14" height="14" fill="black">
<rect fill="white" x="29.5" y="33.125" width="14" height="14"/>
<path fill-rule="evenodd" clip-rule="evenodd" d="M30.9393 43.0496C30.3536 43.6354 30.3536 44.5852 30.9393 45.1709C31.5251 45.7567 32.4749 45.7567 33.0607 45.1709L36.2426 41.989L39.4246 45.171C40.0104 45.7568 40.9602 45.7568 41.5459 45.171C42.1317 44.5852 42.1317 43.6355 41.5459 43.0497L38.3639 39.8677L41.5459 36.6857C42.1317 36.0999 42.1317 35.1501 41.5459 34.5643C40.9602 33.9786 40.0104 33.9786 39.4246 34.5643L36.2426 37.7463L33.0607 34.5644C32.4749 33.9786 31.5251 33.9786 30.9393 34.5644C30.3536 35.1502 30.3536 36.0999 30.9393 36.6857L34.1213 39.8677L30.9393 43.0496Z"/>
</mask>
<path fill-rule="evenodd" clip-rule="evenodd" d="M30.9393 43.0496C30.3536 43.6354 30.3536 44.5852 30.9393 45.1709C31.5251 45.7567 32.4749 45.7567 33.0607 45.1709L36.2426 41.989L39.4246 45.171C40.0104 45.7568 40.9602 45.7568 41.5459 45.171C42.1317 44.5852 42.1317 43.6355 41.5459 43.0497L38.3639 39.8677L41.5459 36.6857C42.1317 36.0999 42.1317 35.1501 41.5459 34.5643C40.9602 33.9786 40.0104 33.9786 39.4246 34.5643L36.2426 37.7463L33.0607 34.5644C32.4749 33.9786 31.5251 33.9786 30.9393 34.5644C30.3536 35.1502 30.3536 36.0999 30.9393 36.6857L34.1213 39.8677L30.9393 43.0496Z" fill="white"/>
<path d="M30.9393 45.1709L30.409 45.7013L30.409 45.7013L30.9393 45.1709ZM30.9393 43.0496L30.409 42.5193H30.409L30.9393 43.0496ZM33.0607 45.1709L33.591 45.7013L33.591 45.7013L33.0607 45.1709ZM36.2426 41.989L36.773 41.4587L36.2426 40.9283L35.7123 41.4587L36.2426 41.989ZM39.4246 45.171L39.955 44.6407L39.4246 45.171ZM41.5459 43.0497L42.0763 42.5193L41.5459 43.0497ZM38.3639 39.8677L37.8336 39.3373L37.3033 39.8677L37.8336 40.398L38.3639 39.8677ZM41.5459 36.6857L42.0763 37.216V37.216L41.5459 36.6857ZM41.5459 34.5643L42.0763 34.034V34.034L41.5459 34.5643ZM39.4246 34.5643L39.955 35.0947V35.0947L39.4246 34.5643ZM36.2426 37.7463L35.7123 38.2767L36.2426 38.807L36.773 38.2767L36.2426 37.7463ZM33.0607 34.5644L33.591 34.0341L33.0607 34.5644ZM30.9393 34.5644L31.4697 35.0947L30.9393 34.5644ZM30.9393 36.6857L30.409 37.216H30.409L30.9393 36.6857ZM34.1213 39.8677L34.6516 40.398L35.182 39.8677L34.6516 39.3373L34.1213 39.8677ZM31.4697 44.6406C31.1768 44.3477 31.1768 43.8728 31.4697 43.58L30.409 42.5193C29.5303 43.398 29.5303 44.8226 30.409 45.7013L31.4697 44.6406ZM32.5303 44.6406C32.2374 44.9335 31.7626 44.9335 31.4697 44.6406L30.409 45.7013C31.2877 46.58 32.7123 46.58 33.591 45.7013L32.5303 44.6406ZM35.7123 41.4587L32.5303 44.6406L33.591 45.7013L36.773 42.5193L35.7123 41.4587ZM39.955 44.6407L36.773 41.4587L35.7123 42.5193L38.8943 45.7013L39.955 44.6407ZM41.0156 44.6407C40.7227 44.9336 40.2479 44.9336 39.955 44.6407L38.8943 45.7013C39.773 46.58 41.1976 46.58 42.0763 45.7013L41.0156 44.6407ZM41.0156 43.58C41.3085 43.8729 41.3085 44.3478 41.0156 44.6407L42.0763 45.7013C42.955 44.8226 42.955 43.398 42.0763 42.5193L41.0156 43.58ZM37.8336 40.398L41.0156 43.58L42.0763 42.5193L38.8943 39.3373L37.8336 40.398ZM41.0156 36.1553L37.8336 39.3373L38.8943 40.398L42.0763 37.216L41.0156 36.1553ZM41.0156 35.0947C41.3085 35.3876 41.3085 35.8624 41.0156 36.1553L42.0763 37.216C42.955 36.3373 42.955 34.9127 42.0763 34.034L41.0156 35.0947ZM39.955 35.0947C40.2478 34.8018 40.7227 34.8018 41.0156 35.0947L42.0763 34.034C41.1976 33.1553 39.773 33.1553 38.8943 34.034L39.955 35.0947ZM36.773 38.2767L39.955 35.0947L38.8943 34.034L35.7123 37.216L36.773 38.2767ZM32.5303 35.0947L35.7123 38.2767L36.773 37.216L33.591 34.0341L32.5303 35.0947ZM31.4697 35.0947C31.7626 34.8018 32.2374 34.8018 32.5303 35.0947L33.591 34.0341C32.7123 33.1554 31.2877 33.1554 30.409 34.0341L31.4697 35.0947ZM31.4697 36.1554C31.1768 35.8625 31.1768 35.3876 31.4697 35.0947L30.409 34.0341C29.5303 34.9127 29.5303 36.3374 30.409 37.216L31.4697 36.1554ZM34.6516 39.3373L31.4697 36.1554L30.409 37.216L33.591 40.398L34.6516 39.3373ZM31.4697 43.58L34.6516 40.398L33.591 39.3373L30.409 42.5193L31.4697 43.58Z" fill="white" mask="url(#path-8-outside-1_104_194)"/>
</svg>
